<?xml version="1.0" encoding="UTF-8"?>
<!-- Generated by @neplex/vectorizer (Using visioncortex VTracer) -->
<svg version="1.1" xmlns="http://www.w3.org/2000/svg" width="1024" height="1024">
<path d="M0 0 C4.61668984 1.15417246 6.48949864 2.84111825 10.125 5.875 C50.31815463 37.96302003 98.89570271 48.26501145 149.34765625 43.4921875 C166.1671695 41.21822067 181.14676106 36.14281338 196 28 C197.65902344 27.09701172 197.65902344 27.09701172 199.3515625 26.17578125 C209.0593392 20.70747665 217.1228948 14.15723614 224.73828125 6.0390625 C227 4 227 4 231 3 C231.66 3.33 232.32 3.66 233 4 C232 9 232 9 230 11 C229.91853863 14.66576165 229.91475173 18.33432446 230 22 C229.34 22.33 228.68 22.66 228 23 C228 29.6 228 36.2 228 43 C225.34863221 39.02294832 225.58933012 36.06348426 225.375 31.3125 C225.26285156 28.98638672 225.26285156 28.98638672 225.1484375 26.61328125 C225.09945312 25.42089844 225.05046875 24.22851562 225 23 C224.34 23.33 223.68 23.66 223 24 C221.57756482 37.59215834 221.46301696 51.34592534 221 65 C220.67 65 220.34 65 220 65 C219.67 67.97 219.34 70.94 219 74 C220.32 73.67 221.64 73.34 223 73 C223 77.29 223 81.58 223 86 C222.01 86.495 222.01 86.495 221 87 C220.67 87.99 220.34 88.98 220 90 C219.34 90 218.68 90 218 90 C218.38302459 96.81380592 218.82889692 103.53080025 220.0625 110.25 C220.93893629 115.62547591 221.15977456 120.56766513 221 126 C220.67 125.34 220.34 124.68 220 124 C219.34 124 218.68 124 218 124 C217.67 128.95 217.34 133.9 217 139 C217.66 139 218.32 139 219 139 C220.19049887 143.76199549 220.0643737 148.10759895 220 153 C219.34 153 218.68 153 218 153 C218 153.66 218 154.32 218 155 C217.34 155 216.68 155 216 155 C216.33 169.19 216.66 183.38 217 198 C217.33 191.07 217.66 184.14 218 177 C219.65 176.01 221.3 175.02 223 174 C223.33 176.31 223.66 178.62 224 181 C224.33 181 224.66 181 225 181 C225.07248204 191.89555499 224.78827611 202.74940696 224.37890625 213.63671875 C224.28258156 216.26952568 224.28258156 216.26952568 224.18431091 218.95552063 C224.04849438 222.65260249 223.91143334 226.34963882 223.77319336 230.04663086 C223.56379898 235.65272252 223.35872946 241.25895982 223.15429688 246.86523438 C223.02109053 250.476572 222.88763505 254.08790044 222.75390625 257.69921875 C222.6934462 259.35088547 222.63298615 261.00255219 222.57069397 262.70426941 C222.15294748 273.8123706 221.5843898 284.89659385 221 296 C195.59 296 170.18 296 144 296 C143.7525 287.1725 143.505 278.345 143.25 269.25 C142.23518931 237.91933644 135.92967227 99.92967227 116 80 C107.64727195 101.20948458 99.35549228 122.42098451 92 144 C91.50677246 145.44697266 91.01354492 146.89394531 90.50537109 148.38476562 C76.65835502 189.32525117 66.0476815 230.86541131 56.6171875 273.00390625 C56.38127899 274.05422028 56.14537048 275.1045343 55.90231323 276.18667603 C54.44015126 282.77699067 53.20925841 289.34907874 52 296 C25.27 296 -1.46 296 -29 296 C-12.39955143 131.24054798 -12.39955143 131.24054798 -2.8125 65 C-2.57768921 63.3676239 -2.57768921 63.3676239 -2.33813477 61.70227051 C-0.40055901 48.31822748 1.82738849 35.02519502 4.50395203 21.7668457 C5.49260088 16.69684668 6.02479424 13.12397119 5 8 C3.33729713 6.66172696 1.67083819 5.32810215 0 4 C0 2.68 0 1.36 0 0 Z " fill="#1E1D1E" transform="translate(361,728)"/>
<path d="M0 0 C1.65 0 3.3 0 5 0 C6 4 6 4 5 8 C4.10323097 20.19605884 8.13086197 31.5860428 12 43 C12 43.99 12 44.98 12 46 C16.00971352 41.99028648 18.29053184 38.25272147 21.0234375 33.36328125 C23 31 23 31 25.9765625 30.23046875 C26.97429687 30.15441406 27.97203125 30.07835937 29 30 C30.98 29.505 30.98 29.505 33 29 C33 29.66 33 30.32 33 31 C35.31 31.33 37.62 31.66 40 32 C40 32.33 40 32.66 40 33 C34.06 33.495 34.06 33.495 28 34 C29.12442078 35.35525218 29.12442078 35.35525218 32.0546875 35.0625 C34.59635556 35.02091852 37.13802224 34.9792522 39.6796875 34.9375 C43 35 43 35 46 36 C46.87364819 37.93182932 47.67591752 39.89630906 48.4375 41.875 C50.25759046 45.77453224 51.13213787 47.5854656 55.05859375 49.4609375 C58.73193174 50.39382873 58.73193174 50.39382873 64 51 C64.433125 49.55625 64.86625 48.1125 65.3125 46.625 C65.869375 44.76875 66.42625 42.9125 67 41 C67.515625 39.185 68.03125 37.37 68.5625 35.5 C70 31 70 31 72 29 C74.7890625 28.96484375 74.7890625 28.96484375 78 30 C80.7734375 32.94140625 80.7734375 32.94140625 83.375 36.5625 C84.24898437 37.76003906 85.12296875 38.95757812 86.0234375 40.19140625 C86.67570313 41.11824219 87.32796875 42.04507813 88 43 C91.52463502 33.70778041 93.9025591 22.99847943 93 13 C90.39508501 10.27297962 87.72988057 7.60191742 85 5 C85 3.68 85 2.36 85 1 C86.65 0.67 88.3 0.34 90 0 C91.87759414 1.52989152 93.7370321 3.08621994 95.51171875 4.734375 C107.33911001 15.50342827 121.02530734 22.41582094 135.20703125 29.51953125 C151.3471755 37.694351 151.3471755 37.694351 154 43 C155.65 42.67 157.3 42.34 159 42 C174.25267027 62.71223904 178.97009128 94.85804994 185.8984375 119.15625 C194.21298614 149.53260343 194.21298614 149.53260343 207.59375 177.8984375 C209 181 209 181 208 186 C204.6875 189.0625 204.6875 189.0625 201 192 C199.68 193.32 198.36 194.64 197 196 C197.3937461 198.98590792 197.80758075 201.97333496 198.40234375 204.92578125 C200.8066686 217.2931254 197.40684711 230.3704582 191 241 C186.01957333 247.17572907 180.73677617 250.40741148 173 252 C148.92488974 254.44021494 128.71334123 243.28204029 110.5 228.625 C87.07806859 209.15613718 87.07806859 209.15613718 83 201 C80.34404489 199.97188835 77.67653284 198.97328467 75 198 C73.68 196.68 72.36 195.36 71 194 C66.77574363 193.97036069 66.77574363 193.97036069 61.6875 194.75 C52.8639315 195.80062889 44.18844137 196.04130752 35.30859375 195.83203125 C34.27278671 195.81214142 33.23697968 195.79225159 32.16978455 195.77175903 C27.93671557 195.68925022 23.70618269 195.60654481 19.47567749 195.4342041 C5.79475003 194.353886 5.79475003 194.353886 -5.91015625 200.16015625 C-7.29510073 201.75487909 -8.6604098 203.36699349 -10 205 C-24.16019732 215.77200902 -39.21489794 225.7739609 -55 234 C-54.51394287 234.80171631 -54.02788574 235.60343262 -53.52709961 236.42944336 C-51.62760972 240.8706967 -51.5954922 244.30039887 -51.56640625 249.12890625 C-51.55512695 250.95075439 -51.54384766 252.77260254 -51.53222656 254.6496582 C-51.5422168 256.600896 -51.55220703 258.55213379 -51.5625 260.5625 C-51.56487671 261.56131195 -51.56725342 262.5601239 -51.56970215 263.58920288 C-51.64259983 283.23806717 -53.27342953 302.54397212 -56 322 C-56.14953125 323.12019531 -56.2990625 324.24039062 -56.453125 325.39453125 C-58.19179579 338.19308014 -60.98619289 350.6552507 -64.0625 363.1875 C-64.40313477 364.5794458 -64.74376953 365.9713916 -65.09472656 367.40551758 C-65.42569336 368.70900146 -65.75666016 370.01248535 -66.09765625 371.35546875 C-66.39164307 372.51715576 -66.68562988 373.67884277 -66.98852539 374.87573242 C-68 378 -68 378 -71 383 C-72.98 382.34 -74.96 381.68 -77 381 C-75.91095541 375.91599482 -74.72591578 370.87015983 -73.4140625 365.83984375 C-67.05799351 341.42176823 -63.37514234 317.09805301 -61 292 C-60.72929687 289.32390625 -60.72929687 289.32390625 -60.453125 286.59375 C-59.65884086 276.83701144 -59.62961545 267.03298934 -59.4375 257.25 C-59.39422019 255.18488868 -59.3506032 253.1197844 -59.30664062 251.0546875 C-59.20111836 246.03651738 -59.09900355 241.01830226 -59 236 C-59.99797607 236.48283447 -60.99595215 236.96566895 -62.02416992 237.46313477 C-63.35037354 238.09533936 -64.67657715 238.72754395 -66.04296875 239.37890625 C-67.35031982 240.00611572 -68.6576709 240.6333252 -70.00463867 241.27954102 C-82.46468718 246.64501378 -95.17835504 247.78674745 -108 243 C-112.61056046 240.19357189 -114.78149897 236.89600227 -117 232 C-120.58610237 216.40045467 -119.02943963 201.57997522 -116 186 C-117.14339844 185.62488281 -118.28679687 185.24976563 -119.46484375 184.86328125 C-120.94082031 184.35152344 -122.41679687 183.83976563 -123.9375 183.3125 C-125.41089844 182.81363281 -126.88429688 182.31476563 -128.40234375 181.80078125 C-129.58957031 181.20652344 -130.77679688 180.61226562 -132 180 C-133.75135496 171.24322521 -129.09037071 163.17613817 -126 155 C-125.57493164 153.87142578 -125.14986328 152.74285156 -124.71191406 151.58007812 C-113.54362176 122.05986832 -101.60291462 92.8502038 -88.44580078 64.15869141 C-87.0956682 61.20900964 -85.76326306 58.25191434 -84.43359375 55.29296875 C-77.34600198 39.81059823 -70.68787686 29.90182681 -54.34643555 23.22216797 C-48.92345127 21.24161356 -43.36652651 19.99074679 -37.75 18.6875 C-24.71591767 15.49905033 -8.36631194 11.15508259 0 0 Z M-7.44921875 15.28125 C-12.18026109 18.10769246 -16.57700284 19.80156787 -21.8125 21.5 C-23.65199219 22.09683594 -25.49148438 22.69367188 -27.38671875 23.30859375 C-32.60678107 24.88151441 -37.83320331 26.25531273 -43.125 27.5625 C-53.91250293 30.32691018 -62.84109807 34.08514099 -70 43 C-72.99595543 48.18092516 -75.47912226 53.57527311 -78 59 C-78.9558568 61.00186329 -79.91296973 63.0031271 -80.87109375 65.00390625 C-109.40725058 117.72004415 -109.40725058 117.72004415 -124 174 C-118.35427034 175.29212008 -112.70839792 176.58361535 -107.0625 177.875 C-105.46857422 178.23980469 -103.87464844 178.60460937 -102.23242188 178.98046875 C-99.90727539 179.51220703 -99.90727539 179.51220703 -97.53515625 180.0546875 C-95.40639038 180.54171143 -95.40639038 180.54171143 -93.23461914 181.03857422 C-91.83719482 181.35584473 -90.43977051 181.67311523 -89 182 C-87.4420874 182.37012207 -85.8841748 182.74024414 -84.27905273 183.12158203 C-79.91173678 184.16757493 -79.91173678 184.16757493 -75 184 C-74.1529429 181.35778382 -73.30617422 178.71547489 -72.46069336 176.07275391 C-71.73319985 173.80438759 -71.0022061 171.53714104 -70.26782227 169.27099609 C-68.54672802 163.94083991 -66.86480811 158.61579871 -65.37890625 153.21484375 C-64.90324219 151.53519531 -64.42757812 149.85554687 -63.9375 148.125 C-63.53402344 146.62195313 -63.13054687 145.11890625 -62.71484375 143.5703125 C-61 140 -61 140 -54 137 C-53.67 129.41 -53.34 121.82 -53 114 C-52.01 113.67 -51.02 113.34 -50 113 C-48.74226376 119.78481244 -48.87356841 126.49934547 -48.90234375 133.37109375 C-48.9037587 134.64855972 -48.90517365 135.9260257 -48.90663147 137.24220276 C-48.91221221 141.30732603 -48.92476124 145.37239348 -48.9375 149.4375 C-48.94251749 152.19986899 -48.94707996 154.96223885 -48.95117188 157.72460938 C-48.96217534 164.48309431 -48.97942678 171.2415377 -49 178 C-50.32 178.33 -51.64 178.66 -53 179 C-53.98673059 171.31345163 -54.31160702 163.67405233 -54.5625 155.9375 C-54.60568359 154.69033203 -54.64886719 153.44316406 -54.69335938 152.15820312 C-54.7986225 149.10557238 -54.89973337 146.05279894 -55 143 C-58.5610471 150.1220942 -60.37203345 157.94301288 -62.625 165.5625 C-63.140625 167.28404297 -63.65625 169.00558594 -64.1875 170.77929688 C-64.67476562 172.42091797 -65.16203125 174.06253906 -65.6640625 175.75390625 C-66.33622803 178.01729858 -66.33622803 178.01729858 -67.02197266 180.32641602 C-68.12863545 183.84957856 -68.12863545 183.84957856 -68 187 C-68.928125 186.95875 -69.85625 186.9175 -70.8125 186.875 C-76.0117625 187.03020187 -80.88657522 188.05512803 -86 189 C-93.7205084 189.88741476 -101.24367603 190.09125087 -109 190 C-113.04533518 202.67538356 -113.34151614 217.09102965 -110 230 C-106.89163242 234.60166582 -104.3762509 236.42848051 -99 238 C-86.24199113 239.23029676 -75.34513277 235.67256639 -64 230 C-62.081875 229.0409375 -62.081875 229.0409375 -60.125 228.0625 C-44.42218929 219.98017096 -30.10071211 210.25181877 -15.92578125 199.75 C-12.6742732 197.4723267 -9.60352743 195.63435575 -6 194 C-8.21564646 191.55739282 -8.21564646 191.55739282 -12.9375 189.6875 C-18 187 -18 187 -21 182 C-21.495 179.525 -21.495 179.525 -22 177 C-26.72840586 178.43874416 -30.95830667 180.38312757 -35.35546875 182.6328125 C-36.774646 183.35339844 -38.19382324 184.07398438 -39.65600586 184.81640625 C-41.89909546 185.95916016 -41.89909546 185.95916016 -44.1875 187.125 C-79.95587992 205.19744459 -79.95587992 205.19744459 -92 205 C-91.67 203.68 -91.34 202.36 -91 201 C-87.109375 199.1328125 -87.109375 199.1328125 -81.75 197.125 C-67.43621367 191.56653723 -53.73952679 184.83510263 -40 178 C-38.96858887 177.49162598 -37.93717773 176.98325195 -36.87451172 176.45947266 C-34.15783333 175.11503826 -31.45340053 173.74593795 -28.75 172.375 C-27.25984375 171.61960937 -25.7696875 170.86421875 -24.234375 170.0859375 C-20.57807343 168.2498485 -20.57807343 168.2498485 -20 164 C-20.02578125 162.77796875 -20.0515625 161.5559375 -20.078125 160.296875 C-19.99230546 155.57680032 -19.08539841 151.77104763 -17.75 147.25 C-17.33234375 145.79078125 -16.9146875 144.3315625 -16.484375 142.828125 C-14.56204703 137.87054234 -12.19299451 135.58603239 -7.4375 133.25 C-2.01324301 131.72204028 2.38074689 131.78927801 8 132 C8.33 130.35 8.66 128.7 9 127 C10.32 126.34 11.64 125.68 13 125 C13.33 126.32 13.66 127.64 14 129 C18.9603708 129.99207416 23.26574776 130.09880757 28.3125 130.0625 C29.93800781 130.05347656 31.56351563 130.04445313 33.23828125 130.03515625 C34.47964844 130.02355469 35.72101563 130.01195312 37 130 C37 129.34 37 128.68 37 128 C33.3091176 125.53941173 31.38892458 125.76221024 27 125.8125 C25.7625 125.81894531 24.525 125.82539063 23.25 125.83203125 C19.98821217 125.85568421 19.98821217 125.85568421 17 127 C17 126.34 17 125.68 17 125 C18.5675 125.020625 20.135 125.04125 21.75 125.0625 C26.83820074 125.20405352 26.83820074 125.20405352 31 124 C31.66 124.33 32.32 124.66 33 125 C35.68038384 124.39082185 38.34910706 123.72685774 41 123 C41 122.34 41 121.68 41 121 C43.97 121 46.94 121 50 121 C50.34298487 112.71247503 50.62980673 104.42551447 50.86669922 96.13427734 C50.954798 93.31931141 51.05772603 90.50476623 51.17626953 87.69091797 C52.47232026 65.95361203 52.47232026 65.95361203 43 47 C42.236875 45.411875 41.47375 43.82375 40.6875 42.1875 C38.05118962 38.36630607 38.05118962 38.36630607 32.1875 38 C30.475625 38 28.76375 38 27 38 C25.18311482 40.60110909 23.37162015 43.20598421 21.5625 45.8125 C20.55316406 47.26269531 19.54382813 48.71289062 18.50390625 50.20703125 C15.949174 53.7212361 15.949174 53.7212361 15 57 C13.35 57 11.7 57 10 57 C3.7503208 42.53645672 -0.64854923 28.61898601 -3 13 C-4.55021365 12.90805922 -4.55021365 12.90805922 -7.44921875 15.28125 Z M101 19 C100.67128906 20.90458984 100.67128906 20.90458984 100.3359375 22.84765625 C98.05224698 35.24085481 95.69894575 47.73473901 88 58 C87.01 58 86.02 58 85 58 C84.68546875 57.19175781 84.3709375 56.38351562 84.046875 55.55078125 C83.61890625 54.48214844 83.1909375 53.41351563 82.75 52.3125 C82.33234375 51.25675781 81.9146875 50.20101562 81.484375 49.11328125 C79.97906672 45.95609521 78.37547705 43.56076426 76 41 C75.34 41 74.68 41 74 41 C73.67386719 41.97582031 73.34773438 42.95164062 73.01171875 43.95703125 C72.57472656 45.22933594 72.13773438 46.50164062 71.6875 47.8125 C71.25824219 49.07707031 70.82898438 50.34164062 70.38671875 51.64453125 C69 55 69 55 66 58 C64.02 58.495 64.02 58.495 62 59 C61.67 59.99 61.34 60.98 61 62 C59.68 62.66 58.36 63.32 57 64 C56.92596736 72.06272357 56.87145297 80.12525027 56.83520508 88.18823242 C56.82009774 90.93240809 56.79961087 93.67655954 56.77368164 96.4206543 C56.73738485 100.35992401 56.72029302 104.29887512 56.70703125 108.23828125 C56.69154739 109.46960281 56.67606354 110.70092438 56.66011047 111.96955872 C56.65951224 114.98183713 56.8162569 117.99333073 57 121 C57.99 121.99 58.98 122.98 60 124 C55.545 124.495 55.545 124.495 51 125 C51.33 126.32 51.66 127.64 52 129 C50.515 129.495 50.515 129.495 49 130 C54.61 130 60.22 130 66 130 C66.33 129.34 66.66 128.68 67 128 C65.515 127.505 65.515 127.505 64 127 C65.485 126.505 65.485 126.505 67 126 C67 125.01 67 124.02 67 123 C73.28367552 124.03164822 77.00083076 124.91014825 81 130 C81.66 131.32 82.32 132.64 83 134 C85.82747068 134.92488056 85.82747068 134.92488056 89.125 135.375 C95.39415156 136.67732099 99.33218772 138.41705703 104 143 C107.57831769 149.17259802 108.76634122 153.91134376 108 161 C106.86211291 164.78151269 105.4860385 168.33134245 104 172 C109.11827487 177.63735002 109.11827487 177.63735002 115.91015625 180.48046875 C119.50183726 181.08437972 121.42030635 182.29127319 124.4375 184.3125 C138.73435954 193.38676245 153.7348731 201.03036525 169.7734375 206.5 C171.37058594 207.2425 171.37058594 207.2425 173 208 C173.33 209.32 173.66 210.64 174 212 C161.81565022 214.43686996 147.57704657 204.55425204 137 199 C134.99099609 197.95392578 134.99099609 197.95392578 132.94140625 196.88671875 C126.47024222 193.48118049 120.12835121 190.00218855 114 186 C113.62875 187.3303125 113.62875 187.3303125 113.25 188.6875 C111.49657466 193.33407716 109.55490012 196.19228678 105.08984375 198.51171875 C104.04957031 198.89972656 103.00929688 199.28773438 101.9375 199.6875 C98.62317081 200.94522443 95.96050661 202.02632893 93 204 C93.66644531 204.53367187 94.33289063 205.06734375 95.01953125 205.6171875 C99.89845451 209.56126812 104.63453172 213.55729148 109.1875 217.875 C125.29546878 232.62916514 144.40112132 243.66445804 166.4375 245.4375 C173.74501457 244.73677942 178.33242281 243.53089054 183.8125 238.5 C193.15433853 225.31152207 192.57046801 212.12040007 190 197 C178.615 196.505 178.615 196.505 167 196 C167 195.67 167 195.34 167 195 C165.02 194.67 163.04 194.34 161 194 C162.21816406 193.67386719 163.43632813 193.34773437 164.69140625 193.01171875 C166.29886719 192.57472656 167.90632813 192.13773438 169.5625 191.6875 C171.94662109 191.04361328 171.94662109 191.04361328 174.37890625 190.38671875 C178.43852569 189.16848976 182.19669698 187.86416823 186 186 C186.33 185.34 186.66 184.68 187 184 C189.16467461 183.37330801 191.35864524 182.84572626 193.5625 182.375 C194.76003906 182.11460937 195.95757813 181.85421875 197.19140625 181.5859375 C198.11824219 181.39257812 199.04507813 181.19921875 200 181 C199.46632813 179.9275 198.93265625 178.855 198.3828125 177.75 C188.43143701 156.81423426 182.57118093 134.54605366 176.22314453 112.31469727 C175.94940002 111.3562088 175.67565552 110.39772034 175.39361572 109.41018677 C174.84047481 107.47334053 174.28769849 105.53639013 173.73529053 103.59933472 C168.75786605 86.1846044 163.26475897 68.99518159 157 52 C156.51144531 50.59878906 156.02289062 49.19757813 155.51953125 47.75390625 C154.05927186 44.36612428 154.05927186 44.36612428 148.8125 43.3125 C147.08773437 42.86390625 147.08773437 42.86390625 145.328125 42.40625 C130.28424549 37.51834691 115.99750084 28.85428455 103 20 C102.34 19.67 101.68 19.34 101 19 Z M-10 140 C-12.46146151 144.92292302 -13.07801696 149.59103286 -14 155 C-14.33 156.32 -14.66 157.64 -15 159 C-14.99158604 162.56751817 -14.87059116 166.12241012 -14.7421875 169.6875 C-15 173 -15 173 -18 177 C-17.41661205 181.31636832 -17.41661205 181.31636832 -13.4375 183.1875 C-9.13921727 184.94313661 -5.60705607 185.67092457 -1 186 C-0.67 185.01 -0.34 184.02 0 183 C3.92779377 181.42888249 7.8633215 179.89084629 11.8125 178.375 C12.97394531 177.92898438 14.13539063 177.48296875 15.33203125 177.0234375 C16.21246094 176.68570313 17.09289062 176.34796875 18 176 C18 175.01 18 174.02 18 173 C14.7188698 170.81257986 12.66915644 170.45557194 8.8125 169.875 C6.894375 169.58625 4.97625 169.2975 3 169 C2.67 167.68 2.34 166.36 2 165 C3 164 3 164 5.72265625 163.90234375 C8.81510417 163.93489583 11.90755208 163.96744792 15 164 C12.1684996 159.7527494 8.65261715 158.8739708 4 157 C3.34 157 2.68 157 2 157 C2 156.01 2 155.02 2 154 C2.99 153.67 3.98 153.34 5 153 C0.83322043 149.87491533 -3.2265506 148.03573577 -8 146 C-8 145.34 -8 144.68 -8 144 C-2.08719107 143.74292135 3.23317747 144.7360389 9 146 C9.4472136 140.52174919 9.4472136 140.52174919 8 138 C1.33801753 136.33450438 -4.14283242 136.09522161 -10 140 Z M14 138 C14.47355569 149.99674422 17.86414155 159.92538865 26 169 C30.59824204 172.73190658 33.52148642 174.83340692 39.4375 175.5 C49.28038109 174.4213281 56.58254844 172.9666912 64.0625 166.25 C68.85612799 159.31453823 73.390611 150.59753639 72.66015625 142 C72.44230469 141.01 72.22445312 140.02 72 139 C69.98326172 139.23396484 69.98326172 139.23396484 67.92578125 139.47265625 C49.70816261 141.38696412 32.12932543 140.86838789 14 138 Z M78 140 C79.98 140.99 79.98 140.99 82 142 C87.89811131 144.94905565 91.90302836 147.06413769 95 153 C97.02085738 159.06257214 96.63316965 165.2324014 94.5 171.1875 C93.7575 172.5796875 93.7575 172.5796875 93 174 C93.99 174 94.98 174 96 174 C102.0313406 162.67539937 102.0313406 162.67539937 100.875 150.375 C97.74961881 144.74931386 94.67447419 142.48838831 88.5 140.6875 C83.77017252 139.8489746 83.77017252 139.8489746 78 140 Z M78 148 C77.76925781 148.845625 77.53851562 149.69125 77.30078125 150.5625 C74.35643437 160.80370655 70.14621727 168.02282723 63 176 C68.3072288 175.46028182 73.59392506 174.81355993 78.875 174.0625 C79.96554687 173.90910156 81.05609375 173.75570312 82.1796875 173.59765625 C85.18807843 173.14195165 85.18807843 173.14195165 88 171 C90.12948698 166.29271298 90.5515034 162.12110301 90 157 C87.33237276 152.40575308 85.77914863 150.38957432 81 148 C80.01 148 79.02 148 78 148 Z M101 175 C99.6696875 175.4021875 99.6696875 175.4021875 98.3125 175.8125 C70.91755204 183.3560364 45.11831999 187.66509951 16.875 183.1875 C12.44509921 182.97314996 9.88147779 183.93538416 6 186 C8.05846314 188.50367442 8.05846314 188.50367442 12.48364258 188.24291992 C14.43423584 188.23881104 16.3848291 188.23470215 18.39453125 188.23046875 C19.45169846 188.23001053 20.50886566 188.22955231 21.59806824 188.2290802 C23.85192985 188.22605033 26.10578923 188.21814231 28.35961914 188.20581055 C31.73266442 188.18792337 35.1054286 188.18529847 38.47851562 188.18554688 C52.01460377 188.16271032 65.48361079 187.78070736 79 187 C78.34 188.98 77.68 190.96 77 193 C86.0860641 195.72581923 92.28446288 197.55534112 101.375 193.75 C106.23959827 191.42119081 106.23959827 191.42119081 108 187 C105.78670564 182.92518596 105.78670564 182.92518596 103 179 C102.01 177.02 102.01 177.02 101 175 Z " fill="#232323" transform="translate(437,343)"/>
<path d="M0 0 C5.08489432 1.29019707 7.54392759 3.34456897 11.1875 7.0625 C11.6825 8.5475 11.6825 8.5475 12.1875 10.0625 C6.72917037 20.40459825 -1.9438047 25.22342944 -11.8125 31.0625 C-11.4825 31.3925 -11.1525 31.7225 -10.8125 32.0625 C-3.77538476 29.94172554 1.6343325 27.26316281 7.6875 23.0625 C21.18729295 13.72812178 35.81715068 10.88023071 52.0625 13.74609375 C69.28997807 18.29853039 79.38823378 28.51796369 89.27734375 42.9453125 C92.62083274 47.67556403 96.27919101 51.79889019 100.1875 56.0625 C103.50642058 61.59403431 103.7907686 63.7712703 103.1875 70.0625 C98.51809338 79.5880895 89.71495879 83.68959146 80.1875 87.0625 C78.8675 87.3925 77.5475 87.7225 76.1875 88.0625 C76.34758545 88.90151855 76.5076709 89.74053711 76.67260742 90.60498047 C80.69803971 117.63588237 77.62095499 148.68291621 62.03125 171.69140625 C55.62067271 179.93551729 47.51253153 184.74257363 37.1875 186.0625 C22.13467914 186.92956522 11.3814585 185.60559796 -0.8125 176.0625 C-8.72101268 167.921384 -16.8125 155.74788271 -16.8125 144.0625 C-11.8125 145.0625 -11.8125 145.0625 -9.96875 147.35546875 C-9.4221875 148.31066406 -8.875625 149.26585937 -8.3125 150.25 C-7.70792969 151.25160156 -7.10335937 152.25320313 -6.48046875 153.28515625 C-5.93003906 154.20167969 -5.37960937 155.11820313 -4.8125 156.0625 C3.0635173 167.31395329 15.92164618 174.40932924 29.1875 177.0625 C36.24294299 177.4338391 41.64390244 176.78060976 48.1875 174.0625 C49.1775 173.0725 50.1675 172.0825 51.1875 171.0625 C51.8475 171.0625 52.5075 171.0625 53.1875 171.0625 C53.8475 169.7425 54.5075 168.4225 55.1875 167.0625 C56.115625 165.639375 57.04375 164.21625 58 162.75 C70.70075182 141.56142868 69.57919824 116.84003371 69.1875 93.0625 C60.2775 92.7325 51.3675 92.4025 42.1875 92.0625 C42.98027344 96.01669922 42.98027344 96.01669922 43.7890625 100.05078125 C44.4641908 103.49206021 45.13863467 106.9334735 45.8125 110.375 C46.163125 112.11458984 46.51375 113.85417969 46.875 115.64648438 C47.19726562 117.30615234 47.51953125 118.96582031 47.8515625 120.67578125 C48.15529785 122.21016846 48.4590332 123.74455566 48.77197266 125.32543945 C49.1875 129.0625 49.1875 129.0625 47.1875 132.0625 C45.5375 131.7325 43.8875 131.4025 42.1875 131.0625 C41.39416797 127.60454131 40.60279551 124.14615282 39.8125 120.6875 C39.37164062 118.76164062 38.93078125 116.83578125 38.4765625 114.8515625 C34.7012817 97.89711963 34.7012817 97.89711963 35.1875 92.0625 C35.8475 91.4025 36.5075 90.7425 37.1875 90.0625 C38.5075 90.0625 39.8275 90.0625 41.1875 90.0625 C41.6825 88.0825 41.6825 88.0825 42.1875 86.0625 C46.44508904 83.22410731 49.80111168 83.86939412 54.875 83.9375 C56.61136719 83.95554687 58.34773437 83.97359375 60.13671875 83.9921875 C61.47347656 84.01539063 62.81023437 84.03859375 64.1875 84.0625 C62.41375 83.36125 60.64 82.66 58.8125 81.9375 C54.55099009 80.18571324 50.73797648 78.25587534 46.875 75.75 C39.75788677 71.66952175 34.46358908 73.09148763 26.625 74.5625 C15.7252695 76.37912175 5.20519831 76.34287498 -5.8125 76.0625 C-5.60882813 76.91328125 -5.40515625 77.7640625 -5.1953125 78.640625 C-4.75265059 82.59748043 -5.43176576 85.05395753 -6.6875 88.8125 C-7.05617188 89.94171875 -7.42484375 91.0709375 -7.8046875 92.234375 C-8.8125 95.0625 -8.8125 95.0625 -9.8125 97.0625 C-9.91153281 100.66554676 -9.94220856 104.27059557 -9.9375 107.875 C-9.94007813 109.84082031 -9.94265625 111.80664062 -9.9453125 113.83203125 C-9.96194616 119.05697112 -9.96194616 119.05697112 -8.8125 124.0625 C-9.1425 124.7225 -9.4725 125.3825 -9.8125 126.0625 C-16.34633887 124.75573223 -17.7871529 122.25885717 -21.8125 117.0625 C-23.21936474 114.4338843 -24.57519361 111.77505632 -25.8125 109.0625 C-26.99674326 107.64672523 -26.99674326 107.64672523 -30.375 108 C-31.509375 108.020625 -32.64375 108.04125 -33.8125 108.0625 C-36.03461994 115.96337089 -36.02916626 121.08778808 -32 128.3125 C-28.74636359 132.40278578 -25.90259927 134.60829197 -21.0625 136.625 C-19.99 137.099375 -18.9175 137.57375 -17.8125 138.0625 C-17.4825 139.0525 -17.1525 140.0425 -16.8125 141.0625 C-22.53993651 142.34825105 -25.66234288 141.87167661 -30.8125 139.0625 C-37.32287009 134.63544834 -40.90997017 128.67261931 -42.8125 121.0625 C-43.0279811 116.25008879 -42.99011596 112.58727444 -41.4375 108 C-40.59217151 101.32190489 -42.77044215 96.8540524 -45.33203125 90.734375 C-49.41101974 80.61762254 -49.99644412 65.60399274 -46.3125 55.25 C-42.2653755 48.47106646 -37.55046979 44.10528187 -30.8125 40.0625 C-30.1525 40.0625 -29.4925 40.0625 -28.8125 40.0625 C-29.3384375 38.825 -29.3384375 38.825 -29.875 37.5625 C-31.04807079 33.18303573 -30.89767827 30.47103671 -29.8125 26.0625 C-26.29593508 20.99210407 -23.76601054 18.53108059 -17.8125 17.0625 C-15.47908995 17.02537757 -13.14324245 17.06994062 -10.8125 17.1875 C-6.41225634 17.24784089 -4.12380752 17.20258838 -0.0625 15.375 C2.6136813 12.91850363 2.6136813 12.91850363 4.1875 8.0625 C1.8775 7.4025 -0.4325 6.7425 -2.8125 6.0625 C-1.8225 7.7125 -0.8325 9.3625 0.1875 11.0625 C-0.4725 12.3825 -1.1325 13.7025 -1.8125 15.0625 C-4.2875 14.5675 -4.2875 14.5675 -6.8125 14.0625 C-9.8125 9.0625 -9.8125 9.0625 -9.25 5.9375 C-7.02958802 1.49667605 -4.94562703 0.08107585 0 0 Z M-16.8125 24.0625 C-19.2875 25.5475 -19.2875 25.5475 -21.8125 27.0625 C-22.70842083 30.66169423 -22.70842083 30.66169423 -22.8125 34.0625 C-19.83574541 30.96922105 -19.83574541 30.96922105 -18.8125 27.0625 C-16.8325 26.4025 -14.8525 25.7425 -12.8125 25.0625 C-14.1325 24.7325 -15.4525 24.4025 -16.8125 24.0625 Z M27.1875 28.0625 C30.36356674 29.46476527 30.36356674 29.46476527 34.1875 27.625 C44.08988487 24.53050473 52.94682165 25.73733243 62.1875 30.0625 C68.10323124 33.71880357 73.50571462 37.896392 78.1875 43.0625 C73.63948656 33.96647312 66.75687616 28.71743409 57.35546875 24.91796875 C46.95453028 22.10933062 36.84166662 23.77175928 27.1875 28.0625 Z M79.1875 44.0625 C79.5175 45.7125 79.8475 47.3625 80.1875 49.0625 C82.6625 50.0525 82.6625 50.0525 85.1875 51.0625 C83.54877495 48.7094589 81.88140925 46.37613214 80.1875 44.0625 C79.8575 44.0625 79.5275 44.0625 79.1875 44.0625 Z " fill="#211F20" transform="translate(471.8125,152.9375)"/>
<path d="M0 0 C1.65 0 3.3 0 5 0 C6 1 6 1 6.07556152 4.64646912 C6.05255981 6.30412796 6.02955811 7.9617868 6.00585938 9.66967773 C5.98259079 11.55554092 5.9593222 13.44140411 5.93534851 15.38441467 C5.92043554 16.40711016 5.90552258 17.42980564 5.8901577 18.4834919 C5.84315735 21.72446055 5.80242683 24.96545253 5.76350403 28.20652771 C5.70746983 32.85684514 5.6495341 37.50713268 5.59024048 42.15740967 C5.14303799 77.73293351 4.82708996 113.29809401 5.3125 148.875 C5.32974121 150.33759247 5.34698242 151.80018494 5.36474609 153.30709839 C5.57256857 170.06743309 6.23986984 186.70963803 7.58666992 203.41845703 C8 209 8 209 8 215 C7.01 215.99 7.01 215.99 6 217 C4.68 216.67 3.36 216.34 2 216 C-11.04815113 188.53020816 -3.19451842 138.48616897 -3.18803024 108.80461884 C-3.18750833 105.8595123 -3.18872602 102.91440563 -3.18997192 99.96929932 C-3.18534893 3.18534893 -3.18534893 3.18534893 0 0 Z " fill="#29282A" transform="translate(473,545)"/>
<path d="M0 0 C1.32 0 2.64 0 4 0 C7.88412253 7.76824506 4.86270988 21.74270345 4.5078125 30.39453125 C3.87090478 47.72019853 3.84886107 65.0392076 3.86962891 82.37475586 C3.87497551 87.66327808 3.86965503 92.95171475 3.86328125 98.24023438 C3.85504278 136.01373272 4.66237573 173.68698158 8.73046875 211.265625 C9 215 9 215 8 217 C6.35 217 4.7 217 3 217 C-2.65157178 208.52264234 -1.47132269 194.10818552 -2.0625 184.125 C-2.14048828 182.94292969 -2.21847656 181.76085937 -2.29882812 180.54296875 C-4.0490128 152.04822649 -4.16153635 123.50653454 -4.13037109 94.96875 C-4.12498801 89.11195309 -4.13036436 83.25523218 -4.13671875 77.3984375 C-4.14022732 57.57632694 -3.9828379 37.79956346 -3 18 C-2.8930481 15.73515747 -2.8930481 15.73515747 -2.78393555 13.42456055 C-2.27511603 4.55023206 -2.27511603 4.55023206 0 0 Z " fill="#292929" transform="translate(489,545)"/>
<path d="M0 0 C0.33 0 0.66 0 1 0 C1 1.65 1 3.3 1 5 C1.99 5 2.98 5 4 5 C4.20515065 17.87890211 4.08249293 30.65132266 3.125 43.5 C2.1277867 57.01048674 1.48332818 70.52736281 0.9375 84.0625 C0.89481995 85.10867493 0.85213989 86.15484985 0.8081665 87.23272705 C0.36278793 98.24358142 -0.02586145 109.25225824 -0.27734375 120.26953125 C-0.31657959 121.98454834 -0.35581543 123.69956543 -0.39624023 125.46655273 C-0.46390934 128.6676995 -0.52245007 131.86905614 -0.57055664 135.07055664 C-0.59883545 136.47813232 -0.62711426 137.88570801 -0.65625 139.3359375 C-0.67494141 140.55845215 -0.69363281 141.7809668 -0.71289062 143.04052734 C-1 146 -1 146 -3 149 C-3.12117187 148.08476563 -3.24234375 147.16953125 -3.3671875 146.2265625 C-3.53476562 145.03804687 -3.70234375 143.84953125 -3.875 142.625 C-4.03742187 141.44164062 -4.19984375 140.25828125 -4.3671875 139.0390625 C-4.7302585 135.90433341 -4.7302585 135.90433341 -7 134 C-7.58569979 130.01061087 -7.74288497 126.02813544 -8 122 C-8.66 122 -9.32 122 -10 122 C-10 116.72 -10 111.44 -10 106 C-9.01 106.33 -8.02 106.66 -7 107 C-7.33 100.4 -7.66 93.8 -8 87 C-8.33 87 -8.66 87 -9 87 C-9 82.38 -9 77.76 -9 73 C-8.01 72.505 -8.01 72.505 -7 72 C-6.67 71.01 -6.34 70.02 -6 69 C-5.34 69 -4.68 69 -4 69 C-4.33 65.04 -4.66 61.08 -5 57 C-5.99 57 -6.98 57 -8 57 C-8 53.7 -8 50.4 -8 47 C-7.34 47.33 -6.68 47.66 -6 48 C-4.94409961 37.85986572 -4.68345075 27.75513815 -4.48242188 17.56640625 C-4.44826172 16.27863281 -4.41410156 14.99085938 -4.37890625 13.6640625 C-4.34132202 11.92310303 -4.34132202 11.92310303 -4.30297852 10.14697266 C-4 7 -4 7 -2 2 C-1.67 2 -1.34 2 -1 2 C-0.67 8.93 -0.34 15.86 0 23 C0 15.41 0 7.82 0 0 Z M-9 112 C-8 114 -8 114 -8 114 Z " fill="#282728" transform="translate(588,745)"/>
<path d="M0 0 C1.65 0 3.3 0 5 0 C6.18522084 3.55566252 6.04683045 6.25604455 5.95703125 10.0078125 C5.31973098 47.71790009 9.66854515 85.87104354 21.34765625 121.90234375 C22 125 22 125 20 129 C18.35 128.67 16.7 128.34 15 128 C2.83535785 92.36728715 -2.90722465 53.88886913 -3.3125 16.3125 C-3.33030518 15.25426025 -3.34811035 14.19602051 -3.36645508 13.10571289 C-3.36043319 7.42800231 -3.0056844 5.009474 0 0 Z " fill="#252525" transform="translate(573,597)"/>
<path d="M0 0 C1.32 0.33 2.64 0.66 4 1 C5.40342666 6.61370664 4.09646495 11.64638432 3.125 17.25 C2.75138674 19.46333651 2.3789645 21.67687444 2.0078125 23.890625 C1.83910645 24.87063477 1.67040039 25.85064453 1.49658203 26.86035156 C-2.21632297 50.33525734 -1.80383109 75.97724376 3.02734375 99.25 C4.03376178 104.16487681 4.5762497 109.00420702 5 114 C2.525 114.99 2.525 114.99 0 116 C-3.52353868 112.47646132 -3.61831149 107.07827047 -4.5625 102.3125 C-4.78357422 101.23548828 -5.00464844 100.15847656 -5.23242188 99.04882812 C-11.55034486 67.91731032 -10.96179576 32.64582707 -2 2 C-1.34 1.34 -0.68 0.68 0 0 Z " fill="#252525" transform="translate(584,421)"/>
<path d="M0 0 C1.32 0.33 2.64 0.66 4 1 C3.49641446 5.91578013 2.06028438 8.87000387 -0.69140625 12.94140625 C-5.15734104 19.96214625 -8.08372268 27.14731383 -10.9375 34.9375 C-11.97108265 37.68028101 -13.0062483 40.42246598 -14.04296875 43.1640625 C-14.5436084 44.49727539 -15.04424805 45.83048828 -15.56005859 47.20410156 C-18.85113515 55.87986594 -22.41048195 64.44397933 -26 73 C-27.08474609 75.6296875 -27.08474609 75.6296875 -28.19140625 78.3125 C-28.89136719 79.9625 -29.59132813 81.6125 -30.3125 83.3125 C-31.23482422 85.50326172 -31.23482422 85.50326172 -32.17578125 87.73828125 C-32.77777344 88.81464844 -33.37976563 89.89101563 -34 91 C-35.98 91.495 -35.98 91.495 -38 92 C-38.80768339 84.8923862 -35.73925989 79.35399678 -33 73 C-31.23409894 68.75652148 -29.49163133 64.50349111 -27.75 60.25 C-27.27256348 59.08549316 -26.79512695 57.92098633 -26.30322266 56.72119141 C-23.56330963 49.99130854 -20.95363007 43.23251412 -18.47436523 36.40258789 C-13.83069395 23.61418736 -8.91929502 10.48267707 0 0 Z " fill="#212020" transform="translate(364,426)"/>
<path d="M0 0 C6.10260931 0 7.21415078 1.89706913 11.48046875 5.89453125 C20.96822025 13.82305537 33.15052785 14.84796799 45 16 C45.66 16.33 46.32 16.66 47 17 C46.505 19.475 46.505 19.475 46 22 C38.38316441 25.80841779 26.91648591 22.76722955 19.26171875 20.32421875 C10.84839459 16.9085099 4.38989528 11.3063025 -1 4 C-0.67 2.68 -0.34 1.36 0 0 Z " fill="#282728" transform="translate(448,344)"/>
<path d="M0 0 C1.32 0.33 2.64 0.66 4 1 C5.33276367 3.44482422 5.33276367 3.44482422 6.48046875 6.6796875 C6.90118652 7.85885742 7.3219043 9.03802734 7.75537109 10.25292969 C9.72371631 16.1788148 11.56518064 22.13040151 13.3125 28.125 C13.67150391 29.32898438 14.03050781 30.53296875 14.40039062 31.7734375 C17 40.60715774 17 40.60715774 17 44 C17.99 44.66 18.98 45.32 20 46 C14.62649483 48.45955069 9.26441853 50.1475658 3.5625 51.6875 C1.95503906 52.12449219 0.34757813 52.56148437 -1.30859375 53.01171875 C-3.13583984 53.50091797 -3.13583984 53.50091797 -5 54 C-3.02 54.33 -1.04 54.66 1 55 C0.67 55.66 0.34 56.32 0 57 C-3.00774102 56.7458247 -6.00946692 56.40966207 -9 56 C-9.33 55.34 -9.66 54.68 -10 54 C-6.18689846 50.18689846 -3.13102438 49.72407486 2.0625 48.375 C7.66582942 47.0600029 7.66582942 47.0600029 13 45 C12.64808594 44.11183594 12.29617188 43.22367188 11.93359375 42.30859375 C8.69146681 33.91969611 5.78407747 25.46349886 3.125 16.875 C2.65984985 15.40051392 2.65984985 15.40051392 2.18530273 13.89624023 C0.68386146 8.96390183 0 5.22178812 0 0 Z " fill="#2A2A2A" transform="translate(603,483)"/>
<path d="M0 0 C0.33 0 0.66 0 1 0 C1.04898438 1.29292969 1.09796875 2.58585938 1.1484375 3.91796875 C1.60017684 15.41516434 1.60017684 15.41516434 3.0625 26.8125 C4.30321805 33.87080716 4.17788475 40.85496261 4 48 C3.01 48.495 3.01 48.495 2 49 C1.67 46.69 1.34 44.38 1 42 C-3.20436064 46.20436064 -2.43207457 49.14347736 -2.5625 55 C-2.79217877 64.68826816 -2.79217877 64.68826816 -5 68 C-5 52.82 -5 37.64 -5 22 C-4.34 22 -3.68 22 -3 22 C-3 21.34 -3 20.68 -3 20 C-2.34 20 -1.68 20 -1 20 C-0.67 13.4 -0.34 6.8 0 0 Z " fill="#3F3E3F" transform="translate(582,861)"/>
<path d="M0 0 C0.66 0.66 1.32 1.32 2 2 C1.67 3.65 1.34 5.3 1 7 C-1.39365695 7.67443919 -3.79002525 8.33926055 -6.1875 9 C-7.52167969 9.37125 -8.85585938 9.7425 -10.23046875 10.125 C-14 11 -14 11 -19 11 C-19.66 10.34 -20.32 9.68 -21 9 C-20.67 7.35 -20.34 5.7 -20 4 C-17.60634305 3.32556081 -15.20997475 2.66073945 -12.8125 2 C-11.47832031 1.62875 -10.14414062 1.2575 -8.76953125 0.875 C-5 0 -5 0 0 0 Z " fill="#232424" transform="translate(503,241)"/>
<path d="M0 0 C0.66 0.721875 1.32 1.44375 2 2.1875 C8.30236682 8.09596889 14.69826279 10.80926379 23 13 C23 13.99 23 14.98 23 16 C18.72052157 18.13973922 14.43595909 17.12261349 10 15.875 C3.4200095 12.79062945 -0.28541808 9.7864548 -3 3 C-2.01 2.01 -1.02 1.02 0 0 Z " fill="#292929" transform="translate(496,293)"/>
<path d="M0 0 C3 4 3 4 3 9 C0.9375 11.375 0.9375 11.375 -2 13 C-5.6875 12.9375 -5.6875 12.9375 -9 12 C-11 9 -11 9 -10.8125 5.4375 C-9.37264014 -0.65421477 -5.59635953 -0.59960995 0 0 Z " fill="#232323" transform="translate(498,262)"/>
<path d="M0 0 C3.5 0.375 3.5 0.375 6.5 3.375 C6.375 6.9375 6.375 6.9375 5.5 10.375 C1.79584707 12.84443529 -0.12144505 12.84413089 -4.5 12.375 C-5.49 11.055 -6.48 9.735 -7.5 8.375 C-6.38957968 2.82289838 -5.84500205 0.62625022 0 0 Z " fill="#1F1E1F" transform="translate(526.5,261.625)"/>
<path d="M0 0 C2.31 0.33 4.62 0.66 7 1 C7.33 2.32 7.66 3.64 8 5 C7.01 5.33 6.02 5.66 5 6 C5.99 6.66 6.98 7.32 8 8 C7 9 7 9 3.18359375 9.09765625 C1.61738281 9.08605469 0.05117188 9.07445312 -1.5625 9.0625 C-3.13128906 9.05347656 -4.70007813 9.04445313 -6.31640625 9.03515625 C-7.53199219 9.02355469 -8.74757813 9.01195312 -10 9 C-9.01 8.67 -8.02 8.34 -7 8 C-7.33 6.68 -7.66 5.36 -8 4 C-3.545 3.505 -3.545 3.505 1 3 C0.67 2.01 0.34 1.02 0 0 Z " fill="#444444" transform="translate(496,464)"/>
<path d="M0 0 C3.32056116 0.00791604 5.9924151 2.67976998 6.00033114 5.00033114 C5.9924151 8.3208923 3.32056116 10.99274624 0 11.00066228 C-2.7671343 10.99401039 -4.99367925 8.76746544 -5.00027595 5.00033114 C-4.99367925 2.23319684 -2.7671343 0.00665189 0 0.00005519 Z " fill="#3D3C3C" transform="translate(504,444.99966886)"/>
<path d="M0 0 C1.65 0 3.3 0 5 0 C7 2 7 2 7.3125 5.4375 C7 9 7 9 4 12 C2.35 11.67 0.7 11.34 -1 11 C-3 8 -3 8 -2.75 4.9375 C-2 2 -2 2 0 0 Z " fill="#201F1F" transform="translate(500,406)"/>
<path d="M0 0 C2.7671343 0.0065967 4.99367925 2.23314165 5.00027595 5.00027595 C4.99367925 7.76741025 2.7671343 9.9939552 0 10.0005519 C-2.7671343 9.9939552 -4.99367925 7.76741025 -5.00027595 5.00027595 C-4.99367925 2.23314165 -2.7671343 0.0065967 0 0 Z " fill="#202020" transform="translate(472,402.99972405)"/>
<path d="M0 0 C1.98 0 3.96 0 6 0 C6.99 0.99 7.98 1.98 9 3 C9 6 9 6 8 9 C5.525 10.485 5.525 10.485 3 12 C2.01 11.67 1.02 11.34 0 11 C0.33 9.35 0.66 7.7 1 6 C0.34 5.34 -0.32 4.68 -1 4 C-0.67 2.68 -0.34 1.36 0 0 Z " fill="#373737" transform="translate(468,442)"/>
<path d="M0 0 C6.67906941 -0.27829456 12.04341299 -0.24904746 18 3 C19 6.1875 19 6.1875 19 9 C18.34 8.67 17.68 8.34 17 8 C14.45925013 7.92863062 11.91666078 7.9159605 9.375 7.9375 C8.00085938 7.94652344 6.62671875 7.95554687 5.2109375 7.96484375 C4.15132813 7.97644531 3.09171875 7.98804688 2 8 C2 7.34 2 6.68 2 6 C5.3 5.34 8.6 4.68 12 4 C10.35 3.67 8.7 3.34 7 3 C7 2.34 7 1.68 7 1 C6.071875 1.495 5.14375 1.99 4.1875 2.5 C1 4 1 4 -2 4 C-1.34 2.68 -0.68 1.36 0 0 Z " fill="#373637" transform="translate(463,371)"/>
<path d="M0 0 C0 0.66 0 1.32 0 2 C-8.625 4.125 -8.625 4.125 -12 3 C-12.99 3.495 -12.99 3.495 -14 4 C-17.33308549 4.04064738 -20.66694058 4.04273153 -24 4 C-24.33 5.32 -24.66 6.64 -25 8 C-25.66 8 -26.32 8 -27 8 C-27.33 6.35 -27.66 4.7 -28 3 C-18.63717995 0.99368142 -9.58277389 -0.17745878 0 0 Z " fill="#2A292A" transform="translate(478,464)"/>
<path d="M0 0 C1.22847656 -0.00515625 2.45695312 -0.0103125 3.72265625 -0.015625 C6.9375 0.25 6.9375 0.25 9.9375 2.25 C9.9375 2.91 9.9375 3.57 9.9375 4.25 C7.00019892 4.30389543 4.06261841 4.3427438 1.125 4.375 C-1.32873047 4.40980469 -1.32873047 4.40980469 -3.83203125 4.4453125 C-8.0625 4.25 -8.0625 4.25 -11.0625 2.25 C-6.80118688 0.11934344 -4.67882041 -0.01967958 0 0 Z " fill="#444344" transform="translate(464.0625,468.75)"/>
<path d="M0 0 C1.65 0 3.3 0 5 0 C6 4 6 4 4.3125 7.1875 C2 10 2 10 -2 11 C-2.25 3.375 -2.25 3.375 0 0 Z " fill="#222221" transform="translate(514,342)"/>
<path d="M0 0 C1.66028058 0.00395802 2.99620755 1.33988499 3.00016557 2.00016557 C2.99620755 3.66044615 1.66028058 4.99637312 0 5.00033114 C-1.10685372 4.99763727 -1.9974717 4.10701929 -2.00011038 2.00016557 C-1.9974717 0.89331185 -1.10685372 0.00269387 0 0.00005519 Z " fill="#3C3C3D" transform="translate(464,397.99983443)"/>
</svg>
