<?xml version="1.0" encoding="utf-8"?>
<!-- Generator: Adobe Illustrator 27.5.0, SVG Export Plug-In . SVG Version: 6.00 Build 0)  -->
<svg version="1.1" xmlns="http://www.w3.org/2000/svg" xmlns:xlink="http://www.w3.org/1999/xlink" x="0px" y="0px"
	 viewBox="0 0 2000 2000" style="enable-background:new 0 0 2000 2000;" xml:space="preserve">
<g id="Bg">
	<rect style="opacity:0;fill:#FFFFFF;" width="2000" height="2000"/>
</g>
<g id="Ñëîé_1">
	<g>
		<path d="M1855.788,1026.782c-2.166,3.562-5.67,5.536-9.782,8.368c-4.07,2.803-7.911,6.032-11.904,8.966
			c-8.487,6.237-16.985,12.46-25.528,18.62c-20.076,14.478-41.142,27.379-63.143,38.727c-4.43,2.285-8.961,4.4-13.553,6.339
			c-2.738,1.156-5.612,2.004-8.668,2.198c-4.351,0.276-7.888-1.168-10.467-4.618c-1.636-2.189-3.152-4.514-4.381-6.95
			c-2.359-4.676-4.459-9.483-6.703-14.218c-0.839-1.771-1.196-3.828-3.082-5.223c-1.199,0.75-2.509,1.467-3.71,2.335
			c-33.659,24.313-69.072,45.748-105.978,64.746c-11.538,5.94-23.058,11.909-35.042,16.922c-9.229,3.861-18.692,6.97-28.491,9.036
			c-4.676,0.986-9.394,1.282-14.15,1.048c-9.548-0.47-17.333-4.507-23.12-12.051c-2.568-3.348-4.588-7.122-6.792-10.743
			c-1.849-3.038-2.324-3.491-5.26-2.784c-21.84,5.256-43.579,10.856-64.299,19.758c-1.373,0.59-2.698,1.297-4.029,1.982
			c-4.076,2.096-4.074,2.102-3.255,6.92c2.937,17.295-8.275,34.315-25.529,38.555c-3.613,0.888-7.344,1.294-11.021,1.921
			c-0.045,0.458-0.288,1.027-0.104,1.358c6.645,11.94,6.011,24.475,2.923,37.142c-1.728,7.085-4.683,13.692-8.915,19.673
			c-8.837,12.487-20.751,18.319-36.115,16.55c-2.224-0.256-4.418-0.759-6.628-1.137c-2.209-0.378-2.947,0.2-2.525,2.278
			c1.202,5.923,1.384,11.891,1.033,17.896c-0.571,9.765-4.059,18.456-9.789,26.292c-4.754,6.501-11.267,10.493-18.841,12.87
			c-9.532,2.991-19.202,3.037-28.85,0.804c-6.285-1.454-12.468-3.353-18.678-5.047c-1.36,1.282-0.302,2.342,0.205,3.332
			c2.062,4.023,3.608,8.221,4.579,12.635c3.1,14.087-2.251,27.126-14.37,35.022c-5.518,3.595-11.616,5.761-18.005,7.099
			c-8.375,1.754-16.857,1.992-25.352,1.172c-26.08-2.519-50.932-9.578-74.734-20.432c-4.994-2.277-9.938-4.671-14.848-7.125
			c-2.565-1.282-4.551-0.85-6.809,0.926c-6.472,5.092-13.001,10.135-19.756,14.839c-10.691,7.445-22.023,13.711-34.618,17.45
			c-6.756,2.006-13.571,3.274-20.66,2.619c-13.027-1.202-22.891-9.39-26.401-21.978c-2.259-8.101-1.919-16.304-0.994-24.536
			c0.156-1.39,1.098-2.812-0.191-4.379c-2.495,0.415-4.283,2.276-6.324,3.593c-7.556,4.876-15.153,9.679-23.399,13.329
			c-8.975,3.974-18.247,6.732-28.195,6.644c-21.234-0.189-36.041-16.468-34.21-37.666c0.193-2.238,0.477-4.469,0.75-6.7
			c0.233-1.904,1.247-3.753,0.513-5.79c-2.773,0.197-4.651,2.01-6.798,3.195c-6.346,3.504-12.764,6.861-19.689,9.066
			c-9.734,3.1-19.634,4.129-29.388,0.395c-15.006-5.746-23.966-16.577-26.214-32.663c-0.983-7.033-0.25-13.924,1.658-20.75
			c0.44-1.574,1.915-3.026,0.912-5.048c-2.367-0.387-4.169,1.205-6.094,2.071c-8.473,3.809-17.183,6.705-26.448,7.827
			c-6.312,0.764-12.467,0.129-18.461-1.892c-10.396-3.505-16.385-10.904-18.76-21.469c-1.459-6.49-0.882-12.909,0.479-19.313
			c0.311-1.462,0.814-2.882,1.135-4.342c0.305-1.385-0.233-2.432-1.579-2.955c-0.695-0.27-1.431-0.437-2.152-0.637
			c-13.724-3.82-26.91-9.161-40.216-14.171c-26.388-9.934-52.888-19.581-80.222-26.616c-15.455-3.977-31.098-7.226-46.657-10.8
			c-0.486-0.112-0.977-0.211-1.472-0.278c-6.129-0.831-5.631-0.309-7.586,3.686c-0.548,1.12-1.143,2.22-1.773,3.297
			c-4.121,7.05-10.248,10.612-18.437,10.862c-7.056,0.215-13.933-0.896-20.781-2.345c-18.329-3.879-36.172-9.534-54.121-14.808
			c-27.041-7.946-53.776-16.93-81.089-23.957c-4.831-1.243-9.67-2.454-14.508-3.671c-1.72-0.433-2.917,0.222-3.556,1.847
			c-0.913,2.322-1.685,4.703-2.689,6.984c-4.987,11.336-11.777,15.485-24.247,14.443c-9.462-0.79-18.785-2.531-27.973-4.978
			c-27.017-7.196-53.533-15.98-79.94-25.113c-3.536-1.223-7.01-2.631-10.569-3.782c-4.642-1.501-8.341-4.443-11.964-7.514
			c-2.934-2.487-3.802-5.536-2.932-9.397c3.127-13.875,6.135-27.777,9.042-41.7c7.91-37.885,18.226-75.171,27.891-112.621
			c11.038-42.767,21.641-85.647,32.898-128.355c11.005-41.75,21.424-83.639,31.36-125.653c1.234-5.216,2.977-10.67,3.839-16.102
			c0.496-3.124,0.549-9.355,3.753-11.152c3.991-2.238,10.605,4.543,14.259,5.833c11.432,4.035,23.161,7.402,34.678,11.211
			c15.928,5.266,31.861,10.518,47.827,15.669c17.347,5.597,35.244,9.14,52.951,13.382c3.869,0.927,7.758,1.998,11.415,3.532
			c8.597,3.605,11.744,8.916,11.297,18.176c-0.243,5.037-1.74,9.812-3.042,14.628c-0.391,1.444-0.85,2.873-1.168,4.333
			c-0.241,1.105,0.332,2.061,1.317,2.376c2.373,0.758,4.799,1.364,7.223,1.946c29.349,7.05,58.746,13.907,88.038,21.188
			c18.393,4.572,36.642,9.73,54.927,14.731c3.596,0.984,7.168,2.21,10.561,3.744c8.889,4.021,13.431,10.961,12.795,20.821
			c-0.305,4.721-0.963,9.442-1.833,14.094c-0.514,2.747,0.287,3.743,2.597,4.427c10.523,3.114,21.04,6.253,31.579,9.314
			c28.048,8.146,56.373,15.116,85.118,20.383c28.512,5.225,57.178,9.188,86.132,10.725c14.02,0.744,27.933-0.58,41.624-3.848
			c1.456-0.347,2.916-0.675,4.371-1.026c4.345-1.046,9.075-1.355,12.924-3.357c3.871-2.014,6.882-5.696,10.24-8.68
			c12.899-11.462,26.406-22.135,40.906-31.515c9.24-5.978,18.844-11.263,29.108-15.31c17.155-6.765,34.636-6.564,52.262-2.404
			c16.266,3.839,32.467,7.951,48.736,11.774c19.972,4.693,40.261,7.148,60.71,8.662c17.212,1.275,34.425,1.587,51.656,1.219
			c18.481-0.394,36.913-1.697,55.263-3.955c21.798-2.682,43.581-5.482,65.37-8.237c0.99-0.125,1.976-0.288,2.956-0.477
			c1.301-0.251,2.403-0.818,2.515-2.308c0.533-7.08,5.184-11.089,10.765-14.319c9.288-5.376,18.598-10.719,27.966-15.954
			c36.399-20.342,72.11-41.837,107.485-63.899c4.448-2.774,8.947-5.466,13.367-8.285c2.523-1.609,2.686-2.275,1.612-4.917
			c-0.846-2.079-1.95-4.07-2.618-6.201c-0.891-2.845-1.703-5.754-2.131-8.696c-0.643-4.42,0.581-8.442,3.695-11.727
			c1.541-1.626,3.214-3.142,4.933-4.582c10.718-8.983,21.416-17.99,32.214-26.875c17.755-14.609,34.587-30.249,51.354-45.954
			c2.623-2.456,5.181-4.996,7.477-7.766c2.281-2.753,5.409-11.335,10.233-8.413c1.033,0.626,1.804,1.596,2.551,2.546
			c22.378,28.439,44.725,56.908,66.733,85.636c12.309,16.069,24.5,32.229,36.492,48.536c33.897,46.094,65.757,93.548,94.199,143.237
			c8.578,14.985,16.582,30.296,24.078,45.85c4.755,9.865,10.456,19.37,13.763,29.868c3.33,10.572,4.86,24.103,3.047,35.056
			C1857.396,1023.445,1856.714,1025.259,1855.788,1026.782z M994.106,1240.837c1.949,1.693,3.68,0.547,5.472-0.373
			c7.992-4.106,16.047-8.07,24.408-11.397c5.594-2.226,11.321-3.955,17.285-4.725c10.197-1.316,19.995,0.033,28.814,5.591
			c9.125,5.75,13.834,14.082,13.76,25.033c-0.041,6.145-1.88,11.76-4.272,17.308c-0.828,1.921-2.509,3.656-2.107,6.594
			c2.438-0.745,4.517-1.405,6.609-2.017c7.687-2.251,15.472-4.01,23.516-4.228c8.901-0.241,17.587,0.872,24.884,6.431
			c4.213,3.21,8.785,5.639,13.375,8.152c5.909,3.235,11.906,6.377,17.503,10.104c22.561,15.024,47.058,26.204,71.91,36.706
			c7.131,3.014,14.483,5.423,21.958,7.445c6.799,1.839,13.696,2.914,20.742,2.142c9.222-1.011,17.755-3.844,23.32-11.792
			c9.774-13.959,11.375-28.916,4.534-44.686c-0.754-1.738-1.79-2.835-3.386-3.734c-14.173-7.983-27.298-17.557-40.376-27.153
			c-29.414-21.583-59.963-41.451-90.862-60.803c-8.246-5.165-16.48-10.375-25.455-14.255c-1.131-0.489-2.323-1.065-3.178-1.912
			c-1.094-1.085-1.539-2.544-0.807-4.116c0.703-1.509,1.886-2.231,3.543-2.272c2.101-0.052,3.916,0.929,5.639,1.839
			c5.955,3.145,11.951,6.252,17.671,9.793c30.571,18.926,60.908,38.207,90.001,59.384c11.706,8.521,23.64,16.732,35.577,24.929
			c4.312,2.961,8.861,5.604,13.439,8.146c4.811,2.672,9.923,4.668,15.335,5.851c12.734,2.783,23.177-0.845,31.165-11.176
			c5.141-6.65,8.158-14.266,9.659-22.492c1.172-6.423,1.862-12.862,0.09-19.311c-2.083-7.581-6.283-13.834-13.392-17.122
			c-13.664-6.319-26.423-14.092-38.753-22.612c-19.723-13.629-39.838-26.661-60.025-39.581
			c-21.868-13.996-44.23-27.169-67.14-39.402c-0.872-0.465-1.753-0.993-2.457-1.671c-0.942-0.906-1.277-2.098-0.951-3.427
			c0.414-1.688,1.65-2.612,3.203-2.661c1.445-0.046,3.025,0.216,4.338,0.804c2.955,1.324,5.831,2.846,8.653,4.441
			c39.144,22.133,77.04,46.259,114.15,71.635c8.657,5.92,17.277,11.904,26.462,16.984c5.016,2.774,10.119,5.434,15.353,7.762
			c7.038,3.13,14.485,3.612,22.03,2.273c12.042-2.138,21.677-13.399,21.68-25.234c0.001-3.349-0.468-6.361-3.719-8.422
			c-1.631-1.034-2.808-2.813-4.125-4.312c-10.724-12.207-22.116-23.752-33.969-34.866c-18.598-17.438-37.935-34.025-58.003-49.719
			c-34.098-26.666-71.366-47.63-112.738-60.868c-23.349-7.471-47.24-12.618-71.557-15.656c-8.66-1.082-17.365-1.945-26.144-1.646
			c-8.413,0.287-16.287,2.157-23.396,6.833c-5.214,3.43-10.5,6.749-15.718,10.174c-26.111,17.143-53.023,32.893-81.075,46.66
			c-11.431,5.61-23.036,10.811-35.118,14.896c-22.587,7.638-45.62,10.757-69.321,6.759c-13.405-2.261-26.11-6.578-37.785-13.661
			c-6.45-3.913-12.278-8.589-17.02-14.505c-14.017-17.484-13.222-39.497,2.003-55.871c4.79-5.152,10.301-9.458,16.127-13.346
			c6.021-4.018,12.129-7.909,18.25-11.774c11.414-7.206,22.462-14.916,32.876-23.517c13.104-10.824,25.408-22.534,37.773-34.174
			c0.888-0.836,2.497-1.557,1.76-3.459c-0.861,0.145-1.595,0.237-2.315,0.393c-16.729,3.628-33.656,4.412-50.663,3.091
			c-15.926-1.237-31.802-2.981-47.626-5.274c-27.437-3.975-54.618-9.241-81.491-16.002c-21.288-5.356-42.386-11.432-63.344-17.986
			c-6.243-1.952-6.494-1.656-8.123,4.626c-4.198,16.183-8.009,32.482-12.727,48.513c-23.884,81.154-46.742,162.612-71.902,243.389
			c-0.37,1.189-0.751,2.379-1.042,3.589c-0.343,1.423,0.269,2.445,1.625,2.881c0.942,0.303,1.961,0.356,2.938,0.556
			c31.312,6.412,62.268,14.084,92.428,24.849c17.624,6.291,35.195,12.708,52.682,19.362c8.4,3.196,16.914,6.044,25.628,8.258
			c3.011,0.765,3.25,0.71,4.919-1.866c3.946-6.089,8.336-11.842,12.972-17.411c20.848-25.043,44.397-47.334,69.513-68.011
			c6.565-5.405,13.633-10.109,21.181-14.067c6.445-3.379,13.158-6.058,20.309-7.461c14.02-2.75,26.812,0.069,38.066,8.979
			c7.82,6.191,12.184,14.371,13.234,24.307c0.555,5.255,0.261,10.47-0.603,15.671c-0.2,1.206-0.52,2.484-0.31,3.642
			c0.261,1.44,0.93,2.758,0.918,4.331c-0.01,1.398-1.977,2.524-0.521,4.056c2.367-0.018,4.267-1.383,6.311-2.241
			c8.125-3.41,16.567-5.507,25.312-6.376c8.635-0.858,17.014,0.266,24.715,4.383c8.687,4.643,14.343,11.698,14.894,21.853
			c0.586,10.818-2.751,20.573-9.045,29.333c0.074,0.11,0.149,0.219,0.223,0.329C994.221,1241.117,994.164,1240.977,994.106,1240.837
			z M1475.066,1139.317c0.299-2.196-0.512-3.746-1.173-5.344c-4.77-11.533-8.924-23.293-12.976-35.093
			c-6.161-17.936-12.752-35.716-20.008-53.24c-15.479-37.388-33.634-73.503-52.286-109.374
			c-10.936-21.032-22.139-41.925-33.042-62.974c-2.848-5.498-2.496-5.088-8.552-4.702c-0.747,0.048-1.495,0.108-2.237,0.205
			c-20.039,2.619-40.073,5.273-60.116,7.856c-14.363,1.852-28.792,3.099-43.251,3.765c-24.957,1.149-49.893,0.957-74.829-1.102
			c-19.438-1.605-38.692-4.21-57.677-8.625c-16.272-3.783-32.47-7.883-48.708-11.816c-19.185-4.647-37.649-2.874-55.232,6.361
			c-4.415,2.319-8.835,4.646-13.124,7.187c-8.168,4.839-15.891,10.346-23.473,16.056c-14.578,10.979-27.868,23.443-41.27,35.776
			c-9.002,8.284-17.919,16.659-26.868,25c-16.297,15.191-33.776,28.832-52.699,40.633c-7.831,4.883-15.517,10.014-23.088,15.29
			c-5.555,3.871-10.383,8.587-14.135,14.304c-4.146,6.317-5.68,13.139-4.553,20.68c1.428,9.557,5.765,17.432,12.903,23.842
			c7.156,6.426,15.431,10.959,24.378,14.336c22.926,8.652,46.271,9.157,69.948,3.648c16.626-3.869,32.268-10.343,47.56-17.762
			c29.009-14.074,56.761-30.34,83.698-48.029c5.632-3.698,11.28-7.378,17.027-10.892c5.825-3.561,12.181-5.78,19.016-6.296
			c8.981-0.678,17.98-0.546,26.927,0.43c16.631,1.813,33.07,4.753,49.384,8.494c38.771,8.891,75.089,23.657,108.794,44.825
			c15.45,9.703,30.34,20.172,44.443,31.759c29.534,24.264,58.612,49.016,83.919,77.836c0.329,0.375,0.693,0.721,1.011,1.105
			c1.284,1.545,2.671,1.878,4.596,0.942c4.932-2.398,9.881-4.786,14.952-6.866c13.407-5.499,27.283-9.583,41.288-13.238
			C1462.102,1142.599,1468.609,1140.967,1475.066,1139.317z M1515.891,1165.243c1.032-0.134,3.519-0.355,5.967-0.794
			c13.617-2.438,26.394-7.382,38.844-13.237c14.907-7.011,29.464-14.719,43.905-22.632c29.578-16.207,58.193-33.963,85.517-53.759
			c6.499-4.708,5.867-3.977,2.925-10.805c-13.741-31.89-29.357-62.836-46.518-93.027c-19.992-35.171-41.723-69.271-63.131-103.574
			c-21.011-33.667-43.153-66.63-63.038-100.998c-3.513-6.072-3.574-5.457-8.959-2.135c-13.38,8.257-26.701,16.612-40.138,24.775
			c-32.421,19.697-65.217,38.753-98.388,57.163c-3.052,1.694-6.054,3.495-8.973,5.408c-1.44,0.944-2.748,2.155-3.915,3.43
			c-1.218,1.329-1.221,3.213,0.16,4.669c1.238,1.305,2.792,2.499,2.239,4.398c-1.027,3.529,0.559,6.33,2.041,9.203
			c2.059,3.992,4.157,7.965,6.28,11.923c15.809,29.47,31.415,59.041,46.311,88.991c20.812,41.844,39.048,84.734,53.979,129.034
			c3.424,10.158,7.384,20.148,11.44,30.075c2.92,7.147,6.03,14.251,10.418,20.688
			C1498.047,1161.652,1505.214,1165.412,1515.891,1165.243z M547.496,1206.897c7.556,0.506,13.144-2.323,16.18-9.483
			c1.07-2.524,2.255-5.013,3.134-7.603c2.484-7.321,4.943-14.652,7.224-22.038c21.864-70.784,41.828-142.129,62.94-213.136
			c7.536-25.347,14.541-50.845,20.201-76.686c1.332-6.082,2.345-12.262,3.03-18.449c0.84-7.59-1.713-11.68-8.692-14.8
			c-2.496-1.116-5.106-2.027-7.734-2.787c-7.424-2.148-14.878-4.195-22.332-6.237c-32.231-8.83-64.824-16.196-97.299-24.043
			c-9.694-2.342-19.377-4.731-29.073-7.066c-4.464-1.075-4.868-0.871-6.423,3.687c-2.094,6.137-4.129,12.295-6.104,18.471
			c-20.513,64.143-40.982,128.301-61.519,192.436c-14.303,44.666-27.935,89.525-39.24,135.062c-0.42,1.692-0.89,3.38-1.165,5.097
			c-0.211,1.32,0.221,2.451,1.715,2.851c1.205,0.323,2.396,0.702,3.608,0.991c19.419,4.614,38.481,10.482,57.573,16.263
			c25.53,7.731,50.957,15.823,76.802,22.487C529.272,1204.22,538.285,1206.143,547.496,1206.897z M780.922,1291.576
			c4.884-0.165,8.816-0.567,12.734-1.549c6.578-1.649,12.783-4.202,18.89-7.052c12.037-5.618,23.045-12.932,33.753-20.71
			c10.713-7.781,20.874-16.254,30.744-25.075c10.602-9.475,20.986-19.186,30.896-29.384c5.006-5.152,9.993-10.241,12.408-17.432
			c1.344-4.003,3.214-7.877,3.837-12.067c1.665-11.213-0.119-21.584-9.231-29.298c-8.826-7.471-19.087-10.537-30.681-8.443
			c-8.462,1.528-16.219,4.821-23.607,9.112c-8.672,5.037-16.543,11.169-24.118,17.688c-13.63,11.732-26.71,24.057-39.295,36.901
			c-9.442,9.635-18.33,19.768-26.579,30.449c-3.819,4.945-7.385,10.059-10.085,15.726c-3.301,6.928-4.641,14.204-3.767,21.839
			c1.188,10.38,7.945,17.354,18.27,18.843C777.305,1291.444,779.563,1291.477,780.922,1291.576z M966.992,1193.354
			c-1.609,0.109-3.851,0.227-6.086,0.424c-1.239,0.109-2.485,0.265-3.696,0.542c-19.383,4.429-36.504,13.365-50.981,26.889
			c-19.151,17.89-38.292,35.761-59.831,50.806c-4.971,3.472-9.194,7.591-13.129,12.137c-7.697,8.889-10.242,19.257-8.79,30.665
			c1.959,15.394,15.284,27.093,30.77,27.446c7.686,0.175,14.771-2.093,21.642-5.141c9.341-4.145,17.851-9.504,25.939-15.663
			c11.184-8.516,22.928-15.844,33.7-25.151c11.08-9.572,21.565-19.852,31.038-31.026c7.268-8.572,14.078-17.487,19.694-27.253
			c3.246-5.644,5.902-11.551,7.292-17.946c2.614-12.023-2.635-21.028-14.385-25.058
			C976.069,1193.618,971.869,1193.452,966.992,1193.354z M1047.371,1232.146c-6.848-0.054-13.354,1.598-19.646,4.109
			c-15.091,6.022-29.384,13.612-43.192,22.151c-1.976,1.222-3.365,2.916-4.752,4.684c-11.746,14.976-25.142,28.345-39.596,40.688
			c-8.73,7.455-17.667,14.65-27.129,21.153c-2.875,1.976-4.571,4.295-5.032,7.811c-0.517,3.946-1.65,7.808-2.232,11.748
			c-0.435,2.945-0.693,5.969-0.555,8.936c0.488,10.498,8.654,20.71,18.375,23.024c3.883,0.924,7.844,1.283,11.883,0.887
			c7.534-0.739,14.647-2.868,21.498-6.003c6.593-3.016,12.745-6.8,18.888-10.623c9.307-5.793,17.974-12.485,26.62-19.166
			c19.568-15.12,38.128-31.386,54.504-50.002c4.787-5.442,9.094-11.252,12.659-17.577c2.332-4.136,4.303-8.423,5.426-13.081
			c2.788-11.569-2.152-21.544-13.083-26.205C1057.333,1232.69,1052.383,1232.197,1047.371,1232.146z M1108.948,1280.615
			c-9.043-0.375-28.37,4.751-38.43,10.287c-3.091,1.701-5.712,3.898-8.07,6.567c-4.13,4.674-8.427,9.214-12.845,13.618
			c-13.46,13.412-27.8,25.828-42.852,37.422c-1.97,1.517-4.09,2.875-5.113,5.329c-4.747,11.387-6.348,23.104-3.138,35.139
			c2.006,7.521,6.955,12.487,14.459,14.893c4.912,1.575,9.837,1.483,14.795,0.513c10.902-2.132,20.966-6.422,30.434-12.139
			c16.532-9.982,31.565-21.92,45.464-35.289c7.752-7.456,14.897-15.47,21.049-24.318c4.584-6.593,8.384-13.58,10.48-21.411
			c1.996-7.457,1.903-17.105-4.667-22.237C1123.318,1283.37,1118.196,1280.775,1108.948,1280.615z M1144.378,1296.428
			c-0.102,0.7-0.375,1.443-0.285,2.139c1.06,8.203-0.929,15.877-4.09,23.314c-3.045,7.163-7.232,13.665-11.94,19.839
			c-6.223,8.16-13.216,15.622-20.565,22.769c-1.563,1.519-3.669,2.643-4.325,5.299c0.767,0.507,1.51,1.102,2.34,1.531
			c20.972,10.845,43.063,18.507,66.261,22.835c11.803,2.202,23.727,3.392,35.764,2.028c7.293-0.827,14.248-2.784,20.325-6.984
			c8.845-6.112,12.605-14.52,10.581-25.259c-2.647-14.046-10.994-23.992-23.548-29.835c-19.487-9.07-38.67-18.59-56.616-30.48
			c-3.117-2.065-6.408-3.87-9.655-5.731C1147.351,1297.163,1146.116,1296.215,1144.378,1296.428z"/>
		<path d="M1099.374,790.701c-2.32,0.13-3.955-1.374-4.12-3.116c-0.201-2.116,0.766-3.861,1.623-5.662
			c4.302-9.044,9.506-17.528,15.535-25.53c9.171-12.173,19.168-23.649,29.3-35.013c6.145-6.892,12.286-13.789,18.494-20.625
			c1.326-1.461,2.835-2.805,4.444-3.942c1.054-0.745,2.416-0.536,3.495,0.304c1.268,0.987,1.944,2.302,1.542,3.917
			c-0.503,2.022-2.034,3.393-3.358,4.879c-7.472,8.384-14.964,16.751-22.417,25.152c-7.785,8.775-15.411,17.681-22.624,26.942
			c-6.463,8.298-12.202,17.028-16.778,26.511c-0.756,1.566-1.612,3.091-2.536,4.564
			C1101.27,790.203,1100.11,790.676,1099.374,790.701z"/>
		<path d="M1030.312,700.9c0,15.45,0.017,30.901-0.019,46.351c-0.005,2.232-0.148,4.479-0.439,6.69
			c-0.215,1.637-1.426,2.574-3.025,2.869c-1.612,0.297-3.553-0.914-4.071-2.583c-0.29-0.934-0.428-1.937-0.482-2.917
			c-0.082-1.491-0.025-2.99-0.039-4.485c-0.278-28.916,0.844-57.81,1.447-86.711c0.062-2.986,0.32-5.972,0.611-8.946
			c0.119-1.221,0.445-2.458,0.894-3.602c0.601-1.528,1.877-2.318,3.523-2.24c1.659,0.078,2.921,1.062,3.265,2.595
			c0.373,1.664,0.473,3.459,0.311,5.161C1030.78,668.993,1031.45,684.966,1030.312,700.9z"/>
		<path d="M955.531,790.532c-0.244,1.641-0.72,2.726-1.907,3.427c-1.186,0.7-2.413,0.816-3.509,0.034
			c-0.994-0.709-1.929-1.576-2.677-2.539c-1.223-1.573-2.29-3.27-3.395-4.932c-12.607-18.958-27.056-36.481-42.016-53.587
			c-4.099-4.687-8.736-8.903-13.138-13.322c-1.401-1.406-3.08-2.565-3.833-4.524c-0.622-1.62-0.086-2.939,1.093-4.027
			c0.967-0.892,2.224-1.404,3.424-0.757c1.517,0.819,3.023,1.783,4.265,2.966c4.154,3.959,8.425,7.833,12.227,12.117
			c16.415,18.496,32.1,37.58,45.729,58.268c0.961,1.458,1.974,2.889,2.831,4.406C955.101,788.909,955.31,789.908,955.531,790.532z"
			/>
		<path d="M1531.4,1074.564c0.065-6.051,1.299-12.089,3.65-17.553c5.173-12.024,17.812-16.144,30.208-14.929
			c10.921,1.07,21.693,6.681,27.695,16.055c6.871,10.731,6.918,21.778-0.015,32.409c-7.061,10.829-17.371,17.073-30.163,18.823
			c-10.943,1.497-21.961-4.775-27.026-15.018C1532.751,1088.286,1531.326,1081.417,1531.4,1074.564z M1562.11,1050.026
			c-6.285,0.339-13.901,1.241-17.604,6.977c-5.898,9.136-6.157,21.591-2.494,31.531c3.353,9.1,10.864,13.838,20.45,12.561
			c11.327-1.508,19.887-7.518,25.273-17.623c3.408-6.393,3.059-12.946-0.479-19.27
			C1581.705,1054.281,1572.779,1050.378,1562.11,1050.026z"/>
		<path d="M540.046,1117.636c0.061,13.586-6.426,23.346-18.153,29.493c-10.399,5.452-21.481,6.173-32.601,2.245
			c-12.502-4.416-19.238-13.96-21.421-26.548c-3.379-19.486,10.225-37.599,29.818-40.451c0.493-0.072,0.987-0.228,1.477-0.216
			c11.17,0.283,21.822,2.245,30.524,9.988C537.298,1098.918,540.034,1107.74,540.046,1117.636z M532.066,1117.763
			c0.033-8.962-2.829-15.72-8.85-20.51c-7.468-5.941-16.352-6.745-25.414-6.796c-0.489-0.003-0.988,0.14-1.467,0.269
			c-9.623,2.587-16.082,8.604-19.499,17.947c-5.033,13.763,3.404,33.626,22.507,34.679c4.028,0.222,8.013,0.148,11.887-0.78
			C525.41,1139.177,532.502,1128.01,532.066,1117.763z"/>
	</g>
</g>
</svg>
