<svg width="32" height="33" viewBox="0 0 32 33" fill="none" xmlns="http://www.w3.org/2000/svg">
     <g clip-path="url(#clip0_102_4627)">
       <path d="M0 16.5V32.5H16H32V16.5V0.5H16H0V16.5Z" fill="#007ACC"/>
       <path d="M7.07625 16.6066L7.0661 17.917H9.14863H11.2312L11.2312 23.8345V29.752H12.7042H14.1772V23.8345L14.1772 17.917H16.2597H18.3423V16.632C18.3423 15.9208 18.327 15.3266 18.3067 15.3113C18.2915 15.291 15.7569 15.2808 12.6839 15.2859L7.09149 15.3012L7.07625 16.6066Z" fill="white"/>
       <path d="M25.821 15.2638C26.6337 15.467 27.2534 15.8276 27.8222 16.4168C28.1169 16.7318 28.5537 17.3057 28.5892 17.4429C28.5994 17.4835 27.2076 18.4181 26.3645 18.9413C26.334 18.9616 26.2121 18.8295 26.0749 18.6264C25.6635 18.027 25.2318 17.768 24.5715 17.7222C23.6013 17.6562 22.9765 18.1641 22.9816 19.0124C22.9816 19.2613 23.0172 19.4086 23.1188 19.6118C23.3321 20.0537 23.7283 20.3178 24.9727 20.8562C27.2635 21.8416 28.2438 22.4918 28.8534 23.4162C29.534 24.4473 29.6864 26.093 29.2242 27.3172C28.7162 28.648 27.4565 29.5521 25.6838 29.8518C25.1353 29.9483 23.8349 29.933 23.2457 29.8264C21.9607 29.5978 20.7416 28.9629 19.9899 28.1299C19.6953 27.8048 19.1213 26.9565 19.1569 26.8956C19.1721 26.8753 19.3042 26.794 19.4515 26.7076C19.5937 26.6264 20.1321 26.3165 20.64 26.0219L21.5594 25.4886L21.7524 25.773C22.0216 26.1845 22.6108 26.7483 22.9664 26.9362C23.9873 27.4746 25.3892 27.3984 26.08 26.7787C26.3746 26.5095 26.4965 26.2302 26.4965 25.8187C26.4965 25.448 26.4508 25.2854 26.2578 25.006C26.0089 24.6505 25.501 24.3508 24.0584 23.726C22.4076 23.0149 21.6965 22.573 21.0464 21.8721C20.6705 21.4657 20.3149 20.8156 20.1676 20.2721C20.0457 19.82 20.0153 18.6873 20.1118 18.2302C20.4521 16.6353 21.6559 15.5229 23.393 15.1927C23.9569 15.086 25.2673 15.1267 25.821 15.2638Z" fill="white"/>
     </g>
     <defs>
       <clipPath id="clip0_102_4627">
         <rect width="32" height="32" fill="white" transform="translate(0 0.5)"/>
       </clipPath>
     </defs>
   </svg>